<?xml version="1.0" encoding="UTF-8" standalone="no"?>
<svg width="70px" height="94px" viewBox="0 0 70 94" version="1.1" xmlns="http://www.w3.org/2000/svg" xmlns:xlink="http://www.w3.org/1999/xlink" xmlns:sketch="http://www.bohemiancoding.com/sketch/ns">
    <!-- Generator: Sketch 3.3.2 (12043) - http://www.bohemiancoding.com/sketch -->
    <title>Slice 1</title>
    <desc>Created with Sketch.</desc>
    <defs></defs>
    <g id="Page-1" stroke="none" stroke-width="1" fill="none" fill-rule="evenodd" sketch:type="MSPage">
        <g id="noun_67194_cc" sketch:type="MSLayerGroup" fill="#000000">
            <path d="M35,0.5 C29.5,0.5 25,5 25,10.5 C25,14.4 27.2,17.8 30.5,19.4 L30.5,15.7 C29,14.4 28.1,12.6 28.1,10.5 C28.1,6.7 31.2,3.6 35,3.6 C38.8,3.6 41.9,6.7 41.9,10.5 C41.9,12.6 41,14.5 39.5,15.7 L39.5,19.4 C42.8,17.8 45,14.4 45,10.5 C45,5 40.5,0.5 35,0.5 L35,0.5 Z" id="Shape" sketch:type="MSShapeGroup"></path>
            <path d="M57.7,60.8 L63.3,62 C57.3,69.9 45.6,75.4 42.2,73.9 C38.7,72.3 38,28 38,28 L52.8,28 L55.3,25.5 L56.9,25.5 L56.9,23 L37.9,23 L37.9,16.2 C37.9,13.1 35.4,13.2 35,13.3 C34.7,13.3 32,13.1 32,16.3 L32,23.1 L13.2,23.1 L13.2,25.6 L14.8,25.6 L17.3,28.1 L32.1,28.1 C32.1,28.1 31.4,72.4 27.9,74 C24.5,75.5 12.8,70 6.8,62.1 L12.4,60.9 L1,54.4 L1,67.6 L4.3,63.7 C5.1,66 8.8,74.3 19.6,80.1 C32.1,86.5 35,90.4 35,93.5 L35,93 L35,93.5 C35,90.5 37.9,86.6 50.5,79.9 C61.2,74.2 64.9,65.8 65.8,63.5 L69.1,67.4 L69.1,54.2 L57.7,60.8 L57.7,60.8 Z" id="Shape" sketch:type="MSShapeGroup"></path>
        </g>
    </g>
</svg>