<svg xmlns="http://www.w3.org/2000/svg" xmlns:xlink="http://www.w3.org/1999/xlink" version="1.1" id="Layer_3" x="0px" y="0px" viewBox="5.0 -10.0 100.0 135.0" enable-background="new 0 0 100 100" xml:space="preserve" height="100px" width="100px">
<path d="M50,3.5c-5.5,0-10,4.5-10,10c0,3.9,2.2,7.3,5.5,8.9v-3.7c-1.5-1.3-2.4-3.1-2.4-5.2c0-3.8,3.1-6.9,6.9-6.9  c3.8,0,6.9,3.1,6.9,6.9c0,2.1-0.9,4-2.4,5.2v3.7c3.3-1.6,5.5-5,5.5-8.9C60,8,55.5,3.5,50,3.5z"/>
<path d="M72.7,63.8l5.6,1.2c-6,7.9-17.7,13.4-21.1,11.9c-3.5-1.6-4.2-45.9-4.2-45.9h14.8l2.5-2.5h1.6v-2.5H52.9c0,0,0-3.5,0-6.8  c0-3.1-2.5-3-2.9-2.9c-0.3,0-3-0.2-3,3c0,3.3,0,6.8,0,6.8H28.2v2.5h1.6l2.5,2.5h14.8c0,0-0.7,44.3-4.2,45.9  c-3.4,1.5-15.1-4-21.1-11.9l5.6-1.2l-11.4-6.5l0,13.2l3.3-3.9c0.8,2.3,4.5,10.6,15.3,16.4C47.1,89.5,50,93.4,50,96.5l0-0.5v0.5  c0-3,2.9-6.9,15.5-13.6c10.7-5.7,14.4-14.1,15.3-16.4l3.3,3.9l0-13.2L72.7,63.8z"/>
<text x="0.0" y="117.5" font-size="5.0" font-weight="bold" font-family="Helvetica Neue, Helvetica, Arial-Unicode, Arial, Sans-serif" fill="#000000">Created by sagit milshtein</text><text x="0.0" y="122.5" font-size="5.0" font-weight="bold" font-family="Helvetica Neue, Helvetica, Arial-Unicode, Arial, Sans-serif" fill="#000000">from the Noun Project</text></svg>