<?xml version="1.0" encoding="UTF-8" standalone="no"?>
<svg width="100px" height="100px" viewBox="0 0 100 100" version="1.1" xmlns="http://www.w3.org/2000/svg" xmlns:xlink="http://www.w3.org/1999/xlink" xmlns:sketch="http://www.bohemiancoding.com/sketch/ns">
    <!-- Generator: Sketch 3.3.2 (12043) - http://www.bohemiancoding.com/sketch -->
    <title>Slice 1</title>
    <desc>Created with Sketch.</desc>
    <defs></defs>
    <g id="Page-1" stroke="none" stroke-width="1" fill="none" fill-rule="evenodd" sketch:type="MSPage">
        <g id="noun_5797_cc" sketch:type="MSLayerGroup" fill="#000000">
            <g id="Group" sketch:type="MSShapeGroup">
                <path d="M94.917,24.6 C93.145,21.519 90.913,19.273 88.496,18.067 C88.569,18.902 88.491,19.747 88.271,20.562 C92.778,23.379 97.719,31.539 97.719,50.03 C97.719,68.414 92.997,75.743 90.18,78.472 C89.575,79.053 88.989,79.507 88.427,79.859 C88.53,80.347 88.583,80.845 88.583,81.353 C88.583,81.709 88.554,82.061 88.505,82.408 C89.54,81.925 90.644,81.197 91.762,80.108 C95.522,76.465 100,68.291 100,50.029 C100,39.033 98.291,30.474 94.917,24.6 L94.917,24.6 Z" id="Shape"></path>
                <path d="M79.443,88.267 C76.626,92.774 68.471,97.72 49.97,97.72 C31.586,97.72 24.257,92.993 21.528,90.181 C20.952,89.585 20.507,89.009 20.156,88.452 C19.692,88.545 19.209,88.594 18.72,88.594 C18.339,88.594 17.963,88.565 17.592,88.506 C18.075,89.541 18.803,90.645 19.892,91.763 C23.535,95.522 31.709,100 49.971,100 C60.967,100 69.527,98.291 75.401,94.917 C78.477,93.149 80.714,90.928 81.924,88.516 C81.089,88.579 80.249,88.496 79.443,88.267 L79.443,88.267 Z" id="Shape"></path>
                <path d="M2.28,49.971 C2.28,31.587 7.007,24.258 9.819,21.529 C10.434,20.933 11.035,20.474 11.611,20.118 C11.523,19.669 11.479,19.205 11.479,18.736 C11.479,18.336 11.513,17.945 11.577,17.559 C10.517,18.038 9.389,18.775 8.237,19.893 C4.478,23.535 0,31.709 0,49.971 C0,60.967 1.709,69.526 5.088,75.4 C6.87,78.505 9.121,80.761 11.558,81.963 C11.495,81.128 11.578,80.293 11.802,79.483 C7.275,76.709 2.28,68.564 2.28,49.971 L2.28,49.971 Z" id="Shape"></path>
                <path d="M20.518,11.792 C23.301,7.271 31.445,2.28 50.029,2.28 C68.413,2.28 75.742,7.007 78.471,9.819 C79.076,10.444 79.54,11.054 79.897,11.635 C80.366,11.542 80.849,11.493 81.342,11.493 C81.713,11.493 82.079,11.522 82.441,11.576 C81.962,10.516 81.225,9.388 80.107,8.236 C76.465,4.478 68.291,0 50.029,0 C39.033,0 30.474,1.709 24.6,5.088 C21.485,6.875 19.229,9.131 18.033,11.577 C18.862,11.504 19.707,11.577 20.518,11.792 L20.518,11.792 Z" id="Shape"></path>
                <path d="M81.753,75.723 C82.549,74.737 83.296,73.726 83.989,72.686 L83.989,72.686 C84.111,72.5 84.228,72.32 84.35,72.134 C84.384,72.075 84.423,72.022 84.457,71.963 C84.574,71.782 84.686,71.597 84.799,71.416 C84.823,71.382 84.843,71.348 84.862,71.309 C85.228,70.718 85.575,70.113 85.902,69.507 C85.936,69.448 85.965,69.395 85.995,69.341 C86.098,69.151 86.195,68.96 86.298,68.765 C86.318,68.726 86.337,68.687 86.357,68.648 C86.67,68.038 86.967,67.418 87.251,66.793 C87.271,66.739 87.3,66.681 87.319,66.627 C87.407,66.432 87.495,66.236 87.578,66.041 C87.598,65.992 87.617,65.948 87.637,65.899 C87.901,65.274 88.145,64.639 88.379,64.004 C88.399,63.95 88.418,63.897 88.438,63.843 C88.506,63.643 88.58,63.443 88.648,63.242 C88.663,63.188 88.682,63.139 88.697,63.086 C88.912,62.446 89.112,61.802 89.293,61.152 C89.308,61.103 89.322,61.049 89.337,60.996 C89.396,60.796 89.449,60.591 89.503,60.391 C89.518,60.332 89.532,60.274 89.547,60.215 C89.713,59.566 89.864,58.911 89.996,58.252 C90.011,58.203 90.02,58.154 90.03,58.106 C90.069,57.901 90.108,57.696 90.147,57.491 C90.157,57.432 90.167,57.369 90.181,57.305 C90.298,56.646 90.401,55.977 90.489,55.313 C90.494,55.269 90.499,55.225 90.504,55.181 C90.533,54.976 90.558,54.771 90.577,54.561 C90.587,54.498 90.592,54.429 90.601,54.366 C90.669,53.692 90.723,53.013 90.762,52.335 C90.767,52.301 90.767,52.272 90.767,52.237 C90.782,52.027 90.791,51.822 90.796,51.612 C90.801,51.544 90.801,51.48 90.806,51.412 C90.811,51.202 90.816,50.992 90.821,50.782 L90.821,50.728 C90.831,50.264 90.831,49.795 90.821,49.332 L90.821,49.283 C90.816,49.073 90.811,48.863 90.806,48.653 C90.801,48.585 90.801,48.521 90.796,48.453 C90.791,48.243 90.781,48.038 90.767,47.828 C90.767,47.794 90.767,47.76 90.762,47.73 C90.723,47.051 90.669,46.373 90.596,45.694 C90.591,45.631 90.586,45.567 90.576,45.504 C90.556,45.294 90.532,45.089 90.503,44.879 C90.498,44.84 90.493,44.796 90.488,44.757 C90.4,44.088 90.298,43.419 90.18,42.76 C90.165,42.697 90.156,42.633 90.146,42.574 C90.107,42.369 90.068,42.159 90.024,41.954 C90.02,41.909 90.01,41.86 90,41.816 C89.863,41.157 89.712,40.498 89.546,39.843 C89.531,39.789 89.517,39.731 89.502,39.672 C89.448,39.467 89.395,39.267 89.336,39.062 C89.321,39.013 89.312,38.964 89.297,38.916 C89.111,38.262 88.911,37.617 88.696,36.973 C88.681,36.924 88.662,36.87 88.647,36.822 C88.579,36.622 88.505,36.417 88.432,36.217 C88.417,36.168 88.398,36.119 88.378,36.066 C88.149,35.426 87.899,34.787 87.631,34.157 C87.611,34.113 87.597,34.069 87.577,34.03 C87.494,33.83 87.406,33.63 87.318,33.434 C87.294,33.38 87.274,33.331 87.25,33.278 C86.967,32.648 86.669,32.028 86.352,31.408 C86.332,31.374 86.318,31.335 86.298,31.301 C86.195,31.106 86.093,30.915 85.99,30.72 C85.966,30.671 85.936,30.617 85.907,30.569 C85.575,29.949 85.223,29.339 84.852,28.738 C84.837,28.709 84.818,28.684 84.803,28.655 C84.686,28.469 84.569,28.279 84.451,28.093 C84.417,28.044 84.383,27.99 84.353,27.937 C83.538,26.672 82.649,25.442 81.682,24.255 C82.995,24.177 84.289,23.64 85.295,22.634 C87.473,20.456 87.473,16.906 85.295,14.724 C83.112,12.546 79.563,12.546 77.385,14.724 C76.374,15.73 75.842,17.029 75.764,18.347 C74.592,17.395 73.376,16.516 72.126,15.715 C72.072,15.681 72.019,15.642 71.965,15.608 C71.779,15.491 71.594,15.374 71.408,15.261 C71.379,15.241 71.349,15.222 71.315,15.207 C70.719,14.841 70.109,14.489 69.499,14.157 C69.445,14.128 69.392,14.098 69.338,14.069 C69.148,13.966 68.957,13.864 68.762,13.766 C68.723,13.746 68.689,13.727 68.65,13.707 C68.035,13.394 67.41,13.097 66.785,12.813 C66.731,12.789 66.678,12.764 66.629,12.74 C66.429,12.657 66.233,12.569 66.038,12.486 C65.989,12.466 65.945,12.447 65.901,12.427 C65.271,12.163 64.636,11.914 63.997,11.685 C63.948,11.665 63.894,11.646 63.841,11.626 C63.641,11.558 63.441,11.484 63.24,11.416 C63.186,11.401 63.137,11.382 63.084,11.362 C62.444,11.147 61.8,10.952 61.15,10.766 C61.096,10.751 61.047,10.737 60.999,10.722 C60.794,10.668 60.589,10.615 60.389,10.561 C60.33,10.546 60.272,10.532 60.213,10.517 C59.564,10.351 58.904,10.2 58.25,10.063 C58.201,10.053 58.152,10.043 58.104,10.034 C57.899,9.995 57.694,9.956 57.489,9.917 C57.426,9.907 57.367,9.893 57.303,9.883 C56.639,9.766 55.975,9.663 55.311,9.575 C55.267,9.57 55.223,9.565 55.179,9.555 C54.974,9.531 54.769,9.506 54.559,9.487 C54.496,9.477 54.427,9.472 54.364,9.463 C53.69,9.395 53.016,9.336 52.338,9.302 C52.304,9.297 52.27,9.297 52.235,9.292 C52.025,9.282 51.82,9.272 51.61,9.268 C51.542,9.263 51.473,9.263 51.41,9.258 C51.2,9.253 50.99,9.243 50.78,9.243 L50.721,9.243 C50.492,9.238 50.262,9.233 50.028,9.233 C49.799,9.233 49.569,9.238 49.34,9.243 L49.277,9.243 C49.072,9.243 48.862,9.253 48.652,9.258 C48.584,9.263 48.515,9.263 48.452,9.268 C48.242,9.273 48.037,9.283 47.827,9.292 C47.793,9.297 47.759,9.297 47.72,9.302 C47.046,9.336 46.372,9.395 45.699,9.463 C45.631,9.473 45.567,9.478 45.499,9.487 C45.294,9.507 45.089,9.531 44.884,9.555 C44.84,9.565 44.796,9.57 44.752,9.575 C44.083,9.663 43.419,9.765 42.76,9.883 C42.697,9.893 42.633,9.907 42.57,9.917 C42.365,9.956 42.16,9.995 41.96,10.034 C41.906,10.044 41.857,10.054 41.809,10.063 C41.155,10.2 40.5,10.351 39.851,10.517 C39.792,10.532 39.734,10.546 39.675,10.561 C39.47,10.615 39.27,10.668 39.065,10.722 C39.016,10.737 38.962,10.751 38.909,10.766 C38.264,10.952 37.62,11.147 36.98,11.362 C36.926,11.382 36.873,11.401 36.824,11.416 C36.624,11.484 36.424,11.553 36.223,11.626 C36.169,11.646 36.116,11.665 36.062,11.685 C35.427,11.914 34.792,12.164 34.163,12.427 C34.119,12.447 34.07,12.466 34.026,12.486 C33.831,12.569 33.63,12.657 33.435,12.74 C33.381,12.764 33.328,12.789 33.274,12.813 C32.649,13.096 32.029,13.394 31.419,13.707 C31.375,13.727 31.336,13.746 31.297,13.766 C31.107,13.864 30.916,13.966 30.726,14.069 C30.672,14.098 30.619,14.128 30.565,14.157 C29.95,14.489 29.344,14.836 28.749,15.202 C28.715,15.222 28.686,15.241 28.651,15.261 C28.465,15.373 28.285,15.49 28.099,15.608 C28.045,15.642 27.992,15.681 27.933,15.715 C26.683,16.521 25.467,17.395 24.295,18.352 C24.212,17.043 23.675,15.764 22.679,14.768 C20.496,12.59 16.951,12.59 14.769,14.768 C12.591,16.951 12.591,20.496 14.769,22.678 C15.765,23.674 17.044,24.211 18.348,24.299 C17.396,25.471 16.517,26.687 15.711,27.937 C15.677,27.991 15.643,28.044 15.608,28.098 C15.491,28.284 15.374,28.469 15.261,28.655 C15.241,28.684 15.227,28.714 15.207,28.743 C14.841,29.344 14.489,29.949 14.157,30.564 C14.128,30.618 14.098,30.671 14.069,30.725 C13.966,30.915 13.864,31.106 13.766,31.301 C13.746,31.335 13.727,31.374 13.712,31.408 C13.395,32.023 13.097,32.648 12.814,33.278 C12.79,33.332 12.765,33.381 12.741,33.434 C12.658,33.629 12.57,33.83 12.487,34.025 C12.467,34.069 12.448,34.113 12.428,34.157 C12.164,34.787 11.915,35.427 11.686,36.066 C11.666,36.115 11.647,36.169 11.627,36.217 C11.554,36.422 11.485,36.622 11.417,36.822 C11.397,36.871 11.383,36.925 11.368,36.973 C11.148,37.618 10.953,38.262 10.767,38.911 C10.752,38.965 10.738,39.014 10.723,39.062 C10.669,39.267 10.616,39.472 10.562,39.677 C10.547,39.731 10.533,39.784 10.518,39.843 C10.352,40.497 10.201,41.152 10.064,41.811 C10.054,41.86 10.044,41.909 10.035,41.953 C9.996,42.158 9.957,42.368 9.918,42.573 C9.908,42.632 9.894,42.695 9.884,42.754 C9.767,43.418 9.664,44.087 9.576,44.756 C9.571,44.795 9.566,44.839 9.556,44.878 C9.532,45.088 9.507,45.298 9.483,45.503 C9.478,45.566 9.473,45.63 9.463,45.693 C9.395,46.372 9.336,47.05 9.297,47.729 C9.297,47.763 9.297,47.792 9.292,47.827 C9.282,48.037 9.272,48.247 9.263,48.452 C9.263,48.52 9.263,48.584 9.258,48.647 C9.253,48.857 9.243,49.072 9.243,49.282 C9.243,49.297 9.243,49.311 9.238,49.331 C9.233,49.8 9.233,50.264 9.238,50.732 C9.243,50.747 9.243,50.766 9.243,50.781 C9.243,50.991 9.253,51.201 9.258,51.416 C9.263,51.479 9.263,51.543 9.263,51.606 C9.273,51.816 9.283,52.026 9.292,52.236 C9.297,52.27 9.297,52.299 9.297,52.334 C9.336,53.013 9.395,53.691 9.463,54.37 C9.473,54.433 9.478,54.497 9.483,54.56 C9.507,54.765 9.532,54.975 9.556,55.185 C9.566,55.224 9.571,55.263 9.576,55.307 C9.664,55.976 9.766,56.645 9.884,57.309 C9.894,57.368 9.908,57.426 9.918,57.49 C9.957,57.695 9.996,57.9 10.035,58.11 C10.045,58.154 10.055,58.203 10.064,58.247 C10.201,58.911 10.352,59.565 10.518,60.22 C10.533,60.274 10.547,60.332 10.562,60.386 C10.616,60.591 10.669,60.796 10.723,61.001 C10.738,61.05 10.752,61.099 10.767,61.147 C10.953,61.801 11.148,62.446 11.368,63.09 C11.383,63.139 11.397,63.188 11.417,63.241 C11.485,63.441 11.554,63.641 11.627,63.842 C11.647,63.896 11.666,63.949 11.686,63.998 C11.915,64.638 12.165,65.272 12.428,65.902 C12.448,65.946 12.467,65.99 12.487,66.034 C12.57,66.234 12.658,66.43 12.741,66.63 C12.765,66.684 12.79,66.733 12.814,66.786 C13.097,67.416 13.395,68.036 13.712,68.656 C13.727,68.69 13.746,68.729 13.766,68.763 C13.864,68.958 13.966,69.149 14.069,69.339 C14.098,69.393 14.128,69.446 14.157,69.5 C14.489,70.115 14.841,70.721 15.207,71.321 C15.227,71.35 15.241,71.38 15.261,71.409 C15.373,71.595 15.49,71.78 15.608,71.966 C15.642,72.02 15.676,72.073 15.711,72.127 C16.517,73.377 17.396,74.593 18.353,75.77 C17.064,75.863 15.799,76.4 14.813,77.386 C12.635,79.564 12.635,83.114 14.813,85.296 C16.996,87.474 20.541,87.474 22.723,85.296 C23.709,84.305 24.246,83.04 24.339,81.746 C25.506,82.693 26.717,83.567 27.957,84.363 C27.996,84.392 28.04,84.417 28.079,84.441 C28.274,84.568 28.47,84.69 28.67,84.812 C28.675,84.817 28.68,84.817 28.69,84.822 C29.32,85.208 29.96,85.579 30.604,85.926 C30.633,85.946 30.663,85.96 30.697,85.98 C30.907,86.087 31.112,86.2 31.322,86.307 C31.332,86.312 31.337,86.317 31.346,86.317 C32,86.654 32.664,86.976 33.333,87.274 C33.357,87.284 33.377,87.294 33.401,87.303 C33.621,87.401 33.836,87.498 34.055,87.591 C34.07,87.596 34.079,87.601 34.089,87.606 C34.763,87.889 35.446,88.153 36.13,88.402 C36.15,88.407 36.169,88.417 36.184,88.422 C36.409,88.505 36.633,88.578 36.858,88.656 C36.873,88.661 36.892,88.666 36.912,88.676 C37.596,88.905 38.289,89.12 38.982,89.316 C39.002,89.321 39.016,89.326 39.036,89.331 C39.261,89.39 39.485,89.453 39.71,89.512 C39.739,89.517 39.764,89.527 39.793,89.532 C40.486,89.713 41.18,89.869 41.878,90.011 C41.898,90.016 41.917,90.021 41.937,90.026 C42.157,90.07 42.376,90.114 42.601,90.153 C42.64,90.158 42.679,90.168 42.723,90.173 C43.416,90.3 44.11,90.407 44.808,90.495 C44.828,90.5 44.847,90.5 44.867,90.505 C45.087,90.534 45.306,90.559 45.526,90.583 C45.575,90.588 45.624,90.593 45.672,90.598 C46.37,90.671 47.068,90.73 47.767,90.769 L47.821,90.769 C48.036,90.784 48.251,90.793 48.466,90.798 C48.525,90.803 48.583,90.803 48.642,90.808 C48.857,90.813 49.077,90.818 49.291,90.823 L49.301,90.823 C49.545,90.828 49.789,90.833 50.033,90.833 C50.277,90.833 50.521,90.828 50.765,90.823 L50.78,90.823 C50.995,90.818 51.21,90.813 51.425,90.808 C51.484,90.803 51.547,90.803 51.606,90.798 C51.821,90.793 52.031,90.783 52.246,90.769 L52.324,90.769 C53.008,90.73 53.686,90.671 54.37,90.603 C54.433,90.593 54.502,90.588 54.57,90.579 C54.775,90.559 54.98,90.535 55.185,90.506 C55.229,90.501 55.278,90.496 55.327,90.486 C55.981,90.403 56.64,90.3 57.295,90.183 C57.363,90.173 57.437,90.159 57.51,90.144 C57.705,90.11 57.901,90.071 58.101,90.032 C58.164,90.017 58.228,90.008 58.291,89.993 C58.926,89.861 59.561,89.72 60.186,89.558 C60.264,89.538 60.337,89.519 60.415,89.499 C60.605,89.45 60.796,89.396 60.981,89.348 C61.054,89.324 61.127,89.304 61.201,89.285 C61.821,89.109 62.431,88.924 63.037,88.719 C63.115,88.695 63.193,88.665 63.271,88.641 C63.457,88.578 63.637,88.514 63.818,88.451 C63.901,88.422 63.979,88.392 64.057,88.363 C64.658,88.143 65.253,87.914 65.844,87.665 C65.917,87.636 65.995,87.602 66.069,87.572 C66.25,87.494 66.425,87.416 66.601,87.338 C66.684,87.304 66.762,87.27 66.84,87.231 C67.426,86.967 68.012,86.689 68.588,86.391 C68.656,86.357 68.725,86.323 68.793,86.288 C68.969,86.2 69.145,86.107 69.315,86.015 C69.393,85.971 69.466,85.932 69.54,85.893 C69.721,85.795 69.901,85.698 70.077,85.595 C70.087,85.59 70.097,85.585 70.106,85.58 C70.497,85.36 70.882,85.131 71.268,84.896 C71.322,84.862 71.375,84.833 71.434,84.798 C71.605,84.691 71.776,84.583 71.947,84.471 C72.02,84.427 72.089,84.383 72.157,84.339 C72.333,84.227 72.504,84.114 72.679,83.997 C72.684,83.997 72.684,83.992 72.689,83.992 L72.689,83.992 C73.758,83.279 74.803,82.508 75.814,81.682 C75.902,82.986 76.439,84.26 77.435,85.256 C79.613,87.434 83.163,87.434 85.345,85.256 C87.523,83.073 87.523,79.524 85.34,77.346 C84.341,76.343 83.057,75.806 81.753,75.723 L81.753,75.723 Z M74.644,50.884 C74.62,51.685 74.551,52.481 74.449,53.277 C74.444,53.297 74.444,53.316 74.439,53.34 C74.371,53.867 74.283,54.395 74.175,54.917 C74.175,54.932 74.17,54.946 74.165,54.961 C74.116,55.215 74.058,55.469 73.999,55.723 C73.999,55.733 73.994,55.743 73.994,55.747 C73.872,56.269 73.73,56.792 73.569,57.305 C73.564,57.325 73.559,57.344 73.549,57.368 C73.393,57.881 73.217,58.393 73.022,58.896 C73.017,58.906 73.017,58.911 73.012,58.92 C72.919,59.164 72.817,59.408 72.714,59.652 C72.709,59.667 72.704,59.676 72.699,59.691 C72.489,60.189 72.26,60.682 72.011,61.166 C72.001,61.186 71.991,61.205 71.982,61.225 C71.733,61.713 71.469,62.197 71.186,62.67 C70.165,64.379 68.925,65.985 67.456,67.455 C65.987,68.925 64.38,70.165 62.671,71.185 L62.671,71.185 C62.197,71.468 61.714,71.737 61.221,71.986 C61.206,71.996 61.187,72.001 61.172,72.01 C60.684,72.259 60.191,72.489 59.693,72.698 C59.678,72.703 59.669,72.708 59.654,72.713 C59.41,72.816 59.166,72.918 58.917,73.011 C58.912,73.016 58.907,73.016 58.902,73.021 C58.394,73.216 57.881,73.392 57.364,73.553 C57.344,73.558 57.325,73.563 57.31,73.568 C56.792,73.729 56.27,73.871 55.747,73.993 C55.742,73.993 55.732,73.998 55.727,73.998 C55.468,74.057 55.214,74.115 54.956,74.164 C54.946,74.169 54.932,74.174 54.922,74.174 C54.395,74.281 53.867,74.369 53.335,74.438 C53.315,74.443 53.296,74.443 53.276,74.448 C52.48,74.551 51.684,74.619 50.883,74.643 C50.863,74.648 50.849,74.648 50.829,74.648 C50.297,74.663 49.765,74.663 49.232,74.648 C49.212,74.648 49.193,74.648 49.178,74.643 C48.377,74.619 47.576,74.55 46.785,74.448 C46.765,74.443 46.741,74.443 46.722,74.438 C46.195,74.37 45.667,74.282 45.145,74.174 C45.13,74.174 45.116,74.169 45.101,74.164 C44.847,74.115 44.588,74.057 44.339,73.998 C44.329,73.998 44.319,73.993 44.31,73.993 C43.792,73.871 43.27,73.729 42.757,73.568 C42.737,73.563 42.713,73.558 42.694,73.548 C42.181,73.392 41.669,73.216 41.166,73.021 C41.156,73.016 41.146,73.011 41.142,73.011 C40.898,72.918 40.654,72.816 40.41,72.718 C40.395,72.708 40.381,72.703 40.366,72.698 C39.873,72.488 39.38,72.259 38.896,72.014 C38.872,72.004 38.852,71.99 38.833,71.98 C38.345,71.731 37.866,71.467 37.393,71.184 C35.684,70.163 34.073,68.923 32.608,67.454 C31.138,65.984 29.898,64.378 28.878,62.669 C28.595,62.195 28.326,61.712 28.077,61.224 C28.067,61.204 28.057,61.185 28.048,61.17 C27.804,60.682 27.574,60.189 27.364,59.691 C27.359,59.676 27.354,59.667 27.344,59.652 C27.241,59.408 27.144,59.164 27.051,58.92 C27.046,58.91 27.046,58.905 27.041,58.896 C26.846,58.393 26.67,57.88 26.509,57.368 C26.504,57.344 26.499,57.324 26.489,57.305 C26.333,56.792 26.191,56.27 26.069,55.747 C26.064,55.742 26.064,55.732 26.064,55.723 C26.001,55.469 25.947,55.215 25.893,54.961 C25.893,54.946 25.888,54.932 25.888,54.917 C25.781,54.395 25.693,53.867 25.619,53.34 C25.619,53.316 25.614,53.296 25.614,53.277 C25.507,52.481 25.443,51.685 25.414,50.884 L25.414,50.83 C25.394,50.298 25.394,49.766 25.414,49.233 L25.414,49.179 C25.443,48.378 25.507,47.577 25.614,46.786 C25.614,46.766 25.619,46.742 25.619,46.723 C25.692,46.196 25.78,45.668 25.888,45.141 C25.888,45.131 25.893,45.117 25.893,45.102 C25.947,44.848 26,44.589 26.064,44.335 C26.064,44.33 26.064,44.32 26.069,44.315 C26.191,43.793 26.333,43.27 26.494,42.757 C26.499,42.737 26.504,42.718 26.509,42.698 C26.67,42.18 26.846,41.668 27.041,41.16 C27.046,41.155 27.046,41.15 27.046,41.145 C27.144,40.896 27.241,40.652 27.349,40.408 C27.354,40.393 27.359,40.384 27.364,40.369 C27.574,39.871 27.803,39.378 28.052,38.89 C28.057,38.87 28.067,38.856 28.076,38.836 C28.325,38.348 28.594,37.864 28.877,37.386 L28.877,37.386 C29.898,35.682 31.138,34.075 32.607,32.606 C34.072,31.136 35.683,29.896 37.387,28.876 L37.387,28.876 C37.866,28.588 38.354,28.319 38.847,28.07 C38.857,28.065 38.871,28.06 38.881,28.05 C39.374,27.801 39.872,27.571 40.38,27.357 C40.385,27.357 40.39,27.352 40.395,27.352 C41.152,27.03 41.923,26.747 42.709,26.507 C42.719,26.502 42.733,26.497 42.743,26.492 C43.265,26.331 43.793,26.189 44.32,26.062 L44.32,26.062 C44.584,26.003 44.847,25.945 45.111,25.891 C45.121,25.891 45.126,25.886 45.135,25.886 C45.662,25.779 46.195,25.691 46.727,25.617 C46.747,25.617 46.761,25.617 46.781,25.612 C47.577,25.509 48.378,25.441 49.178,25.412 L49.232,25.412 C49.764,25.392 50.296,25.392 50.829,25.412 L50.883,25.412 C51.147,25.422 51.41,25.436 51.674,25.451 L51.674,25.451 C52.206,25.49 52.738,25.539 53.271,25.612 C53.295,25.612 53.315,25.617 53.339,25.622 C53.866,25.69 54.389,25.778 54.911,25.886 C54.931,25.886 54.95,25.891 54.965,25.896 C55.214,25.945 55.463,25.999 55.712,26.057 C55.727,26.062 55.741,26.062 55.751,26.067 C56.269,26.189 56.786,26.331 57.294,26.487 C57.323,26.497 57.348,26.502 57.372,26.511 C57.885,26.667 58.388,26.843 58.891,27.033 C58.906,27.043 58.92,27.048 58.93,27.053 C59.169,27.146 59.404,27.239 59.638,27.336 C59.658,27.346 59.677,27.356 59.701,27.365 C60.189,27.57 60.678,27.8 61.161,28.044 C61.185,28.054 61.21,28.068 61.234,28.078 C61.717,28.327 62.196,28.591 62.665,28.869 C64.374,29.89 65.985,31.135 67.455,32.604 C68.925,34.073 70.165,35.68 71.185,37.389 C71.468,37.863 71.732,38.341 71.981,38.829 C71.991,38.849 72.001,38.868 72.01,38.888 C72.259,39.376 72.489,39.869 72.698,40.367 C72.703,40.377 72.708,40.391 72.713,40.406 C72.816,40.65 72.918,40.894 73.011,41.138 C73.011,41.143 73.016,41.153 73.021,41.162 C73.216,41.665 73.392,42.178 73.548,42.69 C73.558,42.71 73.563,42.734 73.568,42.753 C73.729,43.266 73.871,43.788 73.993,44.311 C73.993,44.316 73.998,44.326 73.998,44.335 C74.057,44.589 74.115,44.843 74.164,45.097 C74.169,45.112 74.174,45.126 74.174,45.141 C74.281,45.663 74.369,46.191 74.438,46.718 C74.443,46.738 74.443,46.762 74.448,46.781 C74.551,47.572 74.619,48.373 74.643,49.169 C74.648,49.189 74.648,49.208 74.648,49.228 C74.663,49.76 74.663,50.292 74.648,50.825 C74.648,50.85 74.648,50.864 74.644,50.884 L74.644,50.884 Z M22.456,77.603 C20.591,75.738 18.94,73.716 17.51,71.563 L27.432,63.804 C28.501,65.562 29.795,67.227 31.319,68.745 C32.823,70.249 34.483,71.553 36.256,72.637 L28.502,82.554 C26.348,81.123 24.321,79.473 22.456,77.603 L22.456,77.603 Z M22.456,22.456 C24.321,20.591 26.348,18.94 28.501,17.51 L36.255,27.427 C34.483,28.511 32.822,29.81 31.318,31.319 C29.795,32.838 28.501,34.498 27.431,36.26 L17.509,28.501 C18.94,26.348 20.591,24.326 22.456,22.456 L22.456,22.456 Z M72.632,36.26 C71.558,34.497 70.264,32.837 68.745,31.319 C67.236,29.81 65.581,28.511 63.804,27.427 L71.563,17.51 C73.716,18.941 75.738,20.591 77.603,22.456 C79.488,24.341 81.133,26.367 82.549,28.501 L72.632,36.26 L72.632,36.26 Z M78.955,16.289 C80.268,14.976 82.412,14.976 83.73,16.289 C85.043,17.607 85.043,19.751 83.73,21.064 C82.412,22.382 80.268,22.382 78.955,21.064 C77.637,19.751 77.637,17.607 78.955,16.289 L78.955,16.289 Z M16.333,16.333 C17.651,15.02 19.79,15.02 21.108,16.333 C22.426,17.651 22.426,19.79 21.108,21.108 C19.79,22.426 17.651,22.426 16.333,21.108 C15.02,19.79 15.02,17.651 16.333,16.333 L16.333,16.333 Z M21.152,83.73 C19.834,85.043 17.695,85.043 16.377,83.73 C15.059,82.412 15.064,80.268 16.377,78.955 C17.695,77.637 19.834,77.637 21.152,78.955 C22.471,80.269 22.471,82.412 21.152,83.73 L21.152,83.73 Z M63.804,72.637 C65.581,71.553 67.237,70.249 68.745,68.745 C70.264,67.226 71.558,65.561 72.632,63.804 L82.549,71.563 C81.133,73.697 79.487,75.723 77.603,77.608 C75.743,79.468 73.721,81.119 71.563,82.554 L63.804,72.637 L63.804,72.637 Z M83.774,83.687 C82.456,85 80.312,85 78.999,83.687 C77.681,82.369 77.681,80.225 78.999,78.912 C80.312,77.594 82.456,77.594 83.774,78.912 C85.088,80.225 85.088,82.368 83.774,83.687 L83.774,83.687 Z" id="Shape"></path>
            </g>
        </g>
    </g>
</svg>