<svg xmlns="http://www.w3.org/2000/svg" version="1.0" width="90.000000pt" height="90.000000pt" viewBox="4.5 -9.0 90.0 121.5" preserveAspectRatio="xMidYMid meet">
<metadata>
Created by potrace 1.11, written by Peter Selinger 2001-2013
</metadata>
<g transform="translate(0.000000,90.000000) scale(0.100000,-0.100000)" fill="#000000" stroke="none">
<path d="M461 818 c-38 -142 -151 -529 -171 -580 l-18 -48 124 0 124 0 0 -24 c0 -24 -1 -24 -92 -23 -95 1 -213 -12 -235 -26 -7 -5 -13 -19 -13 -33 0 -13 -6 -24 -12 -24 -7 0 -4 -6 7 -13 23 -14 558 -18 571 -4 5 4 2 12 -5 17 -9 5 -12 18 -8 38 l6 29 -95 6 c-52 4 -99 9 -103 12 -5 2 -11 62 -15 132 -4 71 -11 198 -16 283 -5 85 -11 195 -14 243 -2 49 -7 91 -9 93 -3 3 -14 -32 -26 -78z"/>
<path d="M514 750 c18 -131 36 -378 35 -475 -1 -108 -1 -110 22 -116 26 -8 159 -11 159 -5 0 9 -213 631 -218 636 -2 3 -2 -15 2 -40z"/>
</g>
<text x="0.0" y="105.75" font-size="4.5" font-weight="bold" font-family="Helvetica Neue, Helvetica, Arial-Unicode, Arial, Sans-serif" fill="#000000">Created by Sebastian Andreasson</text><text x="0.0" y="110.25" font-size="4.5" font-weight="bold" font-family="Helvetica Neue, Helvetica, Arial-Unicode, Arial, Sans-serif" fill="#000000">from the Noun Project</text></svg>